<svg xmlns="http://www.w3.org/2000/svg" width="1440" height="900"><path d="M830,429L841,548L986,519Z" fill="#66aaea" stroke="#66aaea" stroke-width="1.51"/><path d="M986,519L950,285L830,429Z" fill="#6dabe9" stroke="#6dabe9" stroke-width="1.51"/><path d="M841,548L917,711L986,519Z" fill="#8bb9e6" stroke="#8bb9e6" stroke-width="1.51"/><path d="M830,429L632,426L841,548Z" fill="#3f97e9" stroke="#3f97e9" stroke-width="1.51"/><path d="M841,548L563,689L917,711Z" fill="#95c0e8" stroke="#95c0e8" stroke-width="1.51"/><path d="M677,179L632,426L830,429Z" fill="#579ce6" stroke="#579ce6" stroke-width="1.51"/><path d="M1334,275L972,117L950,285Z" fill="#e0f2dc" stroke="#e0f2dc" stroke-width="1.51"/><path d="M917,711L1031,735L986,519Z" fill="#bcd9e6" stroke="#bcd9e6" stroke-width="1.51"/><path d="M950,285L768,142L830,429Z" fill="#8bbde9" stroke="#8bbde9" stroke-width="1.51"/><path d="M950,285L972,117L768,142Z" fill="#81b2b7" stroke="#81b2b7" stroke-width="1.51"/><path d="M1334,275L950,285L986,519Z" fill="#a8ccde" stroke="#a8ccde" stroke-width="1.51"/><path d="M768,142L677,179L830,429Z" fill="#92bce7" stroke="#92bce7" stroke-width="1.51"/><path d="M632,426L563,689L841,548Z" fill="#5ea3e8" stroke="#5ea3e8" stroke-width="1.51"/><path d="M317,414L520,509L632,426Z" fill="#6aa4e6" stroke="#6aa4e6" stroke-width="1.51"/><path d="M520,509L563,689L632,426Z" fill="#6fade8" stroke="#6fade8" stroke-width="1.51"/><path d="M917,711L772,1027L1031,735Z" fill="#56938f" stroke="#56938f" stroke-width="1.51"/><path d="M1031,735L1281,609L986,519Z" fill="#bddad8" stroke="#bddad8" stroke-width="1.51"/><path d="M1281,609L1334,275L986,519Z" fill="#5899a8" stroke="#5899a8" stroke-width="1.51"/><path d="M1281,609L1439,317L1334,275Z" fill="#41878e" stroke="#41878e" stroke-width="1.51"/><path d="M1031,735L1307,755L1281,609Z" fill="#81b88a" stroke="#81b88a" stroke-width="1.51"/><path d="M1307,755L1403,601L1281,609Z" fill="#7bab8b" stroke="#7bab8b" stroke-width="1.51"/><path d="M520,509L379,531L563,689Z" fill="#8fbce6" stroke="#8fbce6" stroke-width="1.51"/><path d="M317,414L379,531L520,509Z" fill="#94bfe8" stroke="#94bfe8" stroke-width="1.51"/><path d="M430,801L593,935L563,689Z" fill="#5c9b94" stroke="#5c9b94" stroke-width="1.51"/><path d="M563,689L593,935L917,711Z" fill="#4d959f" stroke="#4d959f" stroke-width="1.51"/><path d="M1031,735L1271,924L1307,755Z" fill="#429258" stroke="#429258" stroke-width="1.51"/><path d="M1334,275L1353,166L972,117Z" fill="#6dad7a" stroke="#6dad7a" stroke-width="1.51"/><path d="M1439,317L1353,166L1334,275Z" fill="#709e84" stroke="#709e84" stroke-width="1.51"/><path d="M593,935L772,1027L917,711Z" fill="#31707f" stroke="#31707f" stroke-width="1.51"/><path d="M1403,601L1439,317L1281,609Z" fill="#418489" stroke="#418489" stroke-width="1.51"/><path d="M379,531L430,801L563,689Z" fill="#c7e0e4" stroke="#c7e0e4" stroke-width="1.51"/><path d="M1307,755L1511,708L1403,601Z" fill="#6b9770" stroke="#6b9770" stroke-width="1.51"/><path d="M1137,1061L1271,924L1031,735Z" fill="#477d52" stroke="#477d52" stroke-width="1.51"/><path d="M335,161L317,414L632,426Z" fill="#9dc4e5" stroke="#9dc4e5" stroke-width="1.51"/><path d="M379,531L257,709L430,801Z" fill="#dbefd7" stroke="#dbefd7" stroke-width="1.51"/><path d="M972,117L782,-163L768,142Z" fill="#438286" stroke="#438286" stroke-width="1.51"/><path d="M470,-157L335,161L677,179Z" fill="#5c958b" stroke="#5c958b" stroke-width="1.51"/><path d="M677,179L335,161L632,426Z" fill="#a1c7e5" stroke="#a1c7e5" stroke-width="1.51"/><path d="M1212,-58L1054,-104L972,117Z" fill="#749977" stroke="#749977" stroke-width="1.51"/><path d="M1353,166L1212,-58L972,117Z" fill="#438d57" stroke="#438d57" stroke-width="1.51"/><path d="M772,1027L1137,1061L1031,735Z" fill="#58867b" stroke="#58867b" stroke-width="1.51"/><path d="M1462,974L1511,708L1307,755Z" fill="#166431" stroke="#166431" stroke-width="1.51"/><path d="M1403,601L1703,546L1439,317Z" fill="#33717e" stroke="#33717e" stroke-width="1.51"/><path d="M1462,974L1307,755L1271,924Z" fill="#0e5b2b" stroke="#0e5b2b" stroke-width="1.51"/><path d="M600,-143L677,179L768,142Z" fill="#3b808d" stroke="#3b808d" stroke-width="1.51"/><path d="M1054,-104L782,-163L972,117Z" fill="#4d7e7a" stroke="#4d7e7a" stroke-width="1.51"/><path d="M817,1271L1019,1156L772,1027Z" fill="#40777c" stroke="#40777c" stroke-width="1.51"/><path d="M772,1027L1019,1156L1137,1061Z" fill="#57857b" stroke="#57857b" stroke-width="1.51"/><path d="M88,509L379,531L317,414Z" fill="#61a1ad" stroke="#61a1ad" stroke-width="1.51"/><path d="M88,509L257,709L379,531Z" fill="#75ada6" stroke="#75ada6" stroke-width="1.51"/><path d="M365,1006L641,1156L593,935Z" fill="#45797a" stroke="#45797a" stroke-width="1.51"/><path d="M782,-163L600,-143L768,142Z" fill="#28667b" stroke="#28667b" stroke-width="1.51"/><path d="M593,935L641,1156L772,1027Z" fill="#316f7d" stroke="#316f7d" stroke-width="1.51"/><path d="M365,1006L593,935L430,801Z" fill="#57857b" stroke="#57857b" stroke-width="1.51"/><path d="M1054,-104L1041,-229L782,-163Z" fill="#52827b" stroke="#52827b" stroke-width="1.51"/><path d="M489,-377L470,-157L600,-143Z" fill="#497b7a" stroke="#497b7a" stroke-width="1.51"/><path d="M1212,-58L1041,-229L1054,-104Z" fill="#658f6a" stroke="#658f6a" stroke-width="1.51"/><path d="M1171,1186L1271,924L1137,1061Z" fill="#307141" stroke="#307141" stroke-width="1.51"/><path d="M1171,1186L1462,974L1271,924Z" fill="#14612f" stroke="#14612f" stroke-width="1.51"/><path d="M257,709L365,1006L430,801Z" fill="#7cab82" stroke="#7cab82" stroke-width="1.51"/><path d="M1019,1156L1171,1186L1137,1061Z" fill="#618c67" stroke="#618c67" stroke-width="1.51"/><path d="M817,1271L1171,1186L1019,1156Z" fill="#5e8a7a" stroke="#5e8a7a" stroke-width="1.51"/><path d="M638,-368L600,-143L782,-163Z" fill="#306e7d" stroke="#306e7d" stroke-width="1.51"/><path d="M600,-143L470,-157L677,179Z" fill="#3f777c" stroke="#3f777c" stroke-width="1.51"/><path d="M1212,-58L1251,-366L1041,-229Z" fill="#377446" stroke="#377446" stroke-width="1.51"/><path d="M1353,166L1555,53L1212,-58Z" fill="#136130" stroke="#136130" stroke-width="1.51"/><path d="M1439,317L1555,53L1353,166Z" fill="#417a4d" stroke="#417a4d" stroke-width="1.51"/><path d="M1730,281L1555,53L1439,317Z" fill="#6c9370" stroke="#6c9370" stroke-width="1.51"/><path d="M340,1282L817,1271L641,1156Z" fill="#3c777d" stroke="#3c777d" stroke-width="1.51"/><path d="M641,1156L817,1271L772,1027Z" fill="#2c6a7c" stroke="#2c6a7c" stroke-width="1.51"/><path d="M1511,708L1703,546L1403,601Z" fill="#5a877b" stroke="#5a877b" stroke-width="1.51"/><path d="M1755,722L1703,546L1511,708Z" fill="#6d9478" stroke="#6d9478" stroke-width="1.51"/><path d="M257,709L119,1000L365,1006Z" fill="#307141" stroke="#307141" stroke-width="1.51"/><path d="M112,257L88,509L317,414Z" fill="#529e9e" stroke="#529e9e" stroke-width="1.51"/><path d="M112,257L317,414L335,161Z" fill="#88bba9" stroke="#88bba9" stroke-width="1.51"/><path d="M470,-157L210,50L335,161Z" fill="#69966f" stroke="#69966f" stroke-width="1.51"/><path d="M210,50L112,257L335,161Z" fill="#549f65" stroke="#549f65" stroke-width="1.51"/><path d="M1703,546L1730,281L1439,317Z" fill="#3b767e" stroke="#3b767e" stroke-width="1.51"/><path d="M1041,-229L752,-364L782,-163Z" fill="#3f777c" stroke="#3f777c" stroke-width="1.51"/><path d="M1555,53L1515,-140L1212,-58Z" fill="#01461c" stroke="#01461c" stroke-width="1.51"/><path d="M1041,-229L1251,-366L752,-364Z" fill="#628c7a" stroke="#628c7a" stroke-width="1.51"/><path d="M1635,-236L1515,-140L1785,-46Z" fill="#00441b" stroke="#00441b" stroke-width="1.51"/><path d="M1683,950L1755,722L1511,708Z" fill="#196834" stroke="#196834" stroke-width="1.51"/><path d="M1703,546L1755,722L1730,281Z" fill="#3a767e" stroke="#3a767e" stroke-width="1.51"/><path d="M752,-364L638,-368L782,-163Z" fill="#28667b" stroke="#28667b" stroke-width="1.51"/><path d="M133,-97L50,72L210,50Z" fill="#136130" stroke="#136130" stroke-width="1.51"/><path d="M1462,974L1683,950L1511,708Z" fill="#044b20" stroke="#044b20" stroke-width="1.51"/><path d="M1567,1171L1683,950L1462,974Z" fill="#00441b" stroke="#00441b" stroke-width="1.51"/><path d="M1424,-301L1251,-366L1212,-58Z" fill="#156230" stroke="#156230" stroke-width="1.51"/><path d="M752,-364L489,-377L638,-368Z" fill="#38767f" stroke="#38767f" stroke-width="1.51"/><path d="M88,509L-21,618L257,709Z" fill="#669e8e" stroke="#669e8e" stroke-width="1.51"/><path d="M-85,326L-21,618L88,509Z" fill="#32707d" stroke="#32707d" stroke-width="1.51"/><path d="M21,929L119,1000L257,709Z" fill="#176633" stroke="#176633" stroke-width="1.51"/><path d="M365,1006L340,1282L641,1156Z" fill="#5a887b" stroke="#5a887b" stroke-width="1.51"/><path d="M1515,-140L1424,-301L1212,-58Z" fill="#054f22" stroke="#054f22" stroke-width="1.51"/><path d="M1515,-140L1635,-236L1424,-301Z" fill="#00441b" stroke="#00441b" stroke-width="1.51"/><path d="M1730,281L1775,122L1555,53Z" fill="#2f7140" stroke="#2f7140" stroke-width="1.51"/><path d="M1755,722L1775,122L1730,281Z" fill="#3c777d" stroke="#3c777d" stroke-width="1.51"/><path d="M112,257L-85,326L88,509Z" fill="#437f82" stroke="#437f82" stroke-width="1.51"/><path d="M210,50L50,72L112,257Z" fill="#32884c" stroke="#32884c" stroke-width="1.51"/><path d="M133,-97L210,50L470,-157Z" fill="#367445" stroke="#367445" stroke-width="1.51"/><path d="M638,-368L489,-377L600,-143Z" fill="#3f777c" stroke="#3f777c" stroke-width="1.51"/><path d="M1251,-366L489,-377L752,-364Z" fill="#3b767d" stroke="#3b767d" stroke-width="1.51"/><path d="M817,1271L1567,1171L1171,1186Z" fill="#327242" stroke="#327242" stroke-width="1.51"/><path d="M1171,1186L1567,1171L1462,974Z" fill="#044b20" stroke="#044b20" stroke-width="1.51"/><path d="M220,-363L133,-97L470,-157Z" fill="#397547" stroke="#397547" stroke-width="1.51"/><path d="M-21,618L-32,727L257,709Z" fill="#73a179" stroke="#73a179" stroke-width="1.51"/><path d="M165,1264L340,1282L365,1006Z" fill="#447b50" stroke="#447b50" stroke-width="1.51"/><path d="M119,1000L165,1264L365,1006Z" fill="#276e3c" stroke="#276e3c" stroke-width="1.51"/><path d="M-32,727L21,929L257,709Z" fill="#257b42" stroke="#257b42" stroke-width="1.51"/><path d="M-172,138L-85,326L50,72Z" fill="#417a4d" stroke="#417a4d" stroke-width="1.51"/><path d="M50,72L-85,326L112,257Z" fill="#719a75" stroke="#719a75" stroke-width="1.51"/><path d="M-311,517L-206,846L-32,727Z" fill="#5d8a63" stroke="#5d8a63" stroke-width="1.51"/><path d="M1785,-46L1515,-140L1555,53Z" fill="#00441b" stroke="#00441b" stroke-width="1.51"/><path d="M1424,-301L1635,-236L1251,-366Z" fill="#00441b" stroke="#00441b" stroke-width="1.51"/><path d="M1775,122L1785,-46L1555,53Z" fill="#075124" stroke="#075124" stroke-width="1.51"/><path d="M1755,722L1785,-46L1775,122Z" fill="#628c7a" stroke="#628c7a" stroke-width="1.51"/><path d="M133,-97L48,-89L50,72Z" fill="#085325" stroke="#085325" stroke-width="1.51"/><path d="M-93,-252L48,-89L133,-97Z" fill="#03491f" stroke="#03491f" stroke-width="1.51"/><path d="M-30,1275L165,1264L119,1000Z" fill="#0a5426" stroke="#0a5426" stroke-width="1.51"/><path d="M489,-377L220,-363L470,-157Z" fill="#6b9278" stroke="#6b9278" stroke-width="1.51"/><path d="M1567,1171L1751,1182L1683,950Z" fill="#00441b" stroke="#00441b" stroke-width="1.51"/><path d="M1683,950L1751,1182L1755,722Z" fill="#00441b" stroke="#00441b" stroke-width="1.51"/><path d="M1755,722L1751,1182L1785,-46Z" fill="#5a877b" stroke="#5a877b" stroke-width="1.51"/><path d="M817,1271L1751,1182L1567,1171Z" fill="#065023" stroke="#065023" stroke-width="1.51"/><path d="M-177,-113L-172,138L50,72Z" fill="#054e22" stroke="#054e22" stroke-width="1.51"/><path d="M-85,326L-241,392L-21,618Z" fill="#29677b" stroke="#29677b" stroke-width="1.51"/><path d="M-177,-113L50,72L48,-89Z" fill="#00441b" stroke="#00441b" stroke-width="1.51"/><path d="M-172,138L-241,392L-85,326Z" fill="#59867b" stroke="#59867b" stroke-width="1.51"/><path d="M-32,727L-206,846L21,929Z" fill="#0e592a" stroke="#0e592a" stroke-width="1.51"/><path d="M21,929L-30,1275L119,1000Z" fill="#044b20" stroke="#044b20" stroke-width="1.51"/><path d="M-311,517L-32,727L-21,618Z" fill="#5b887b" stroke="#5b887b" stroke-width="1.51"/><path d="M-172,138L-311,517L-241,392Z" fill="#41777b" stroke="#41777b" stroke-width="1.51"/><path d="M-241,392L-311,517L-21,618Z" fill="#38767e" stroke="#38767e" stroke-width="1.51"/><path d="M165,1264L-30,1275L340,1282Z" fill="#176532" stroke="#176532" stroke-width="1.51"/><path d="M-259,1042L-30,1275L21,929Z" fill="#00441b" stroke="#00441b" stroke-width="1.51"/><path d="M-172,138L-177,-113L-311,517Z" fill="#437b4f" stroke="#437b4f" stroke-width="1.51"/><path d="M-93,-252L-177,-113L48,-89Z" fill="#00441b" stroke="#00441b" stroke-width="1.51"/><path d="M220,-363L-93,-252L133,-97Z" fill="#095527" stroke="#095527" stroke-width="1.51"/><path d="M-206,846L-259,1042L21,929Z" fill="#00441b" stroke="#00441b" stroke-width="1.51"/><path d="M-311,517L-259,1042L-206,846Z" fill="#176532" stroke="#176532" stroke-width="1.51"/><path d="M-259,1042L-186,1253L-30,1275Z" fill="#00441b" stroke="#00441b" stroke-width="1.51"/><path d="M-93,-252L-261,-388L-177,-113Z" fill="#00441b" stroke="#00441b" stroke-width="1.51"/><path d="M-177,-113L-261,-388L-311,517Z" fill="#00451c" stroke="#00451c" stroke-width="1.51"/><path d="M220,-363L-261,-388L-93,-252Z" fill="#00441b" stroke="#00441b" stroke-width="1.51"/><path d="M489,-377L-261,-388L220,-363Z" fill="#166331" stroke="#166331" stroke-width="1.51"/><path d="M1251,-366L-261,-388L489,-377Z" fill="#50807a" stroke="#50807a" stroke-width="1.51"/></svg>